<?xml version="1.0" standalone="no"?>
<!DOCTYPE svg PUBLIC "-//W3C//DTD SVG 20010904//EN"
 "http://www.w3.org/TR/2001/REC-SVG-20010904/DTD/svg10.dtd">
<svg version="1.0" xmlns="http://www.w3.org/2000/svg"
 width="512.000000pt" height="512.000000pt" viewBox="0 0 512.000000 512.000000"
 preserveAspectRatio="xMidYMid meet">
<metadata>
Created by potrace 1.14, written by Peter Selinger 2001-2017
</metadata>
<g transform="translate(0.000000,512.000000) scale(0.100000,-0.100000)"
fill="#000000" stroke="none">
<path d="M0 2560 l0 -2560 2560 0 2560 0 0 2560 0 2560 -2560 0 -2560 0 0
-2560z m2226 1074 c3 -25 4 -104 2 -176 l-5 -129 83 3 84 3 7 -30 c4 -16 6
-86 4 -155 -4 -146 -4 -157 -1 -316 1 -66 -1 -135 -5 -152 l-7 -32 -81 0 -82
0 0 -175 0 -175 82 0 c100 0 98 5 94 -175 -4 -166 -4 -177 -1 -315 2 -63 0
-134 -4 -157 l-8 -43 -83 0 -82 0 5 -114 c2 -62 1 -139 -2 -170 l-7 -56 -605
0 -604 0 -7 28 c-4 15 -7 72 -7 127 1 106 1 228 1 360 0 44 0 118 0 165 0 108
0 252 0 360 0 47 0 121 0 165 0 44 0 118 0 165 0 47 0 128 0 180 0 52 0 133 0
180 0 47 0 122 0 168 0 45 0 121 0 170 -1 242 0 289 6 315 l7 27 605 0 604 0
7 -46z m1719 19 c9 -34 8 -242 -1 -290 l-7 -35 87 4 c85 3 87 3 94 -22 9 -35
8 -237 -1 -282 l-8 -38 -174 0 -174 0 -7 46 c-3 26 -4 102 -2 170 l5 124 -254
0 -253 0 7 -27 c9 -37 9 -228 0 -275 l-8 -38 -82 0 -82 0 0 -515 0 -515 82 0
c82 0 83 0 90 -27 9 -37 9 -238 0 -285 l-8 -38 254 0 254 0 -5 119 c-2 65 -1
144 2 175 l7 56 175 0 174 0 7 -27 c10 -36 10 -237 0 -285 l-8 -38 -82 0 -82
0 4 -126 c1 -69 0 -145 -4 -170 l-6 -44 -433 0 -433 0 -7 46 c-8 64 -7 200 3
252 l8 42 -88 0 -88 0 -7 46 c-3 25 -5 104 -2 174 l5 128 -78 -5 c-71 -5 -78
-4 -88 16 -11 20 -15 115 -14 326 1 125 1 231 0 360 -1 193 1 286 7 310 6 24
9 25 89 25 l83 0 -4 130 c-3 71 -1 150 2 175 l7 45 84 0 84 0 -6 103 c-3 57
-3 133 1 170 l8 67 433 0 433 0 7 -27z"/>
<path d="M1365 2990 l0 -340 335 0 335 0 0 340 0 340 -335 0 -335 0 0 -340z"/>
<path d="M1365 1955 l0 -345 335 0 335 0 0 345 0 345 -335 0 -335 0 0 -345z"/>
</g>
</svg>
